<svg width="40" height="41" viewBox="0 0 40 41" fill="none" xmlns="http://www.w3.org/2000/svg">
<path d="M36.7022 36.6328C36.6916 36.6328 36.6811 36.6328 36.6706 36.6328L3.6817 33.347C3.57653 33.3366 3.48188 33.2743 3.42929 33.1809C3.3767 33.0875 3.37669 32.9784 3.42402 32.8798L13.3212 13.3415C13.3633 13.2585 13.4369 13.2013 13.5211 13.1754L34.9772 7.1229L3.6817 4.03435C3.5029 4.01878 3.37143 3.85784 3.39247 3.68136C3.40824 3.50487 3.57128 3.3751 3.75008 3.39586L36.739 6.65053C36.8967 6.6661 37.0177 6.78549 37.0282 6.94122C37.044 7.09694 36.9441 7.23709 36.7915 7.27862L13.8366 13.7516L4.21285 32.7448L36.7285 35.9839C36.9073 35.9995 37.0387 36.1604 37.0177 36.3369C37.0072 36.5134 36.8652 36.6328 36.7022 36.6328Z" fill="#730384"/>
<path d="M3.71331 6.97806C5.53437 6.97806 7.01063 5.52091 7.01063 3.72342C7.01063 1.92592 5.53437 0.46875 3.71331 0.46875C1.89226 0.46875 0.416016 1.92592 0.416016 3.72342C0.416016 5.52091 1.89226 6.97806 3.71331 6.97806Z" fill="#F4E3F7"/>
<path d="M3.71231 5.34649C2.20828 5.34649 0.893576 4.34466 0.520196 2.9068C0.0679333 4.64573 1.1302 6.42099 2.89193 6.87259C4.65365 7.3242 6.4522 6.27045 6.90972 4.53152C7.04645 3.99686 7.04645 3.44146 6.90972 2.9068C6.52582 4.34466 5.21635 5.34649 3.71231 5.34649Z" fill="#730384"/>
<path d="M36.6993 10.2323C38.5204 10.2323 39.9966 8.77516 39.9966 6.97766C39.9966 5.18017 38.5204 3.72302 36.6993 3.72302C34.8782 3.72302 33.402 5.18017 33.402 6.97766C33.402 8.77516 34.8782 10.2323 36.6993 10.2323Z" fill="#F4E3F7"/>
<path d="M36.7004 8.60095C35.1963 8.60095 33.8816 7.59912 33.5082 6.16125C33.056 7.90019 34.1183 9.67545 35.88 10.127C37.6417 10.5787 39.4402 9.52491 39.8978 7.78598C40.0345 7.25132 40.0345 6.69591 39.8978 6.16125C39.5139 7.59393 38.2044 8.60095 36.7004 8.60095Z" fill="#730384"/>
<path d="M30.1003 21.0549C31.9214 21.0549 33.3976 19.5977 33.3976 17.8002C33.3976 16.0027 31.9214 14.5456 30.1003 14.5456C28.2792 14.5456 26.803 16.0027 26.803 17.8002C26.803 19.5977 28.2792 21.0549 30.1003 21.0549Z" fill="#F4E3F7"/>
<path d="M30.1016 19.4235C28.5976 19.4235 27.2829 18.4217 26.9095 16.9838C26.4572 18.7228 27.5195 20.498 29.2812 20.9496C31.043 21.396 32.8415 20.3475 33.299 18.6085C33.4357 18.0739 33.4357 17.5185 33.299 16.9838C32.9204 18.4217 31.6057 19.4235 30.1016 19.4235Z" fill="#730384"/>
<path d="M36.6993 39.5726C38.5204 39.5726 39.9966 38.1155 39.9966 36.318C39.9966 34.5205 38.5204 33.0633 36.6993 33.0633C34.8782 33.0633 33.402 34.5205 33.402 36.318C33.402 38.1155 34.8782 39.5726 36.6993 39.5726Z" fill="#F4E3F7"/>
<path d="M36.7004 37.941C35.1963 37.941 33.8816 36.9392 33.5082 35.5013C33.056 37.2403 34.1183 39.0155 35.88 39.4671C37.6417 39.9187 39.4402 38.865 39.8978 37.1261C40.0345 36.5914 40.0345 36.036 39.8978 35.5013C39.5139 36.9392 38.2044 37.941 36.7004 37.941Z" fill="#730384"/>
<path d="M16.9049 15.3713L13.6076 17.2503L10.3051 15.3713V11.6131L13.6076 9.72882L16.9049 11.6131V15.3713Z" fill="#F4E3F7"/>
<path d="M13.6076 17.2501V13.4919L10.3051 11.6129V15.371L13.6076 17.2501Z" fill="#730384"/>
<path d="M3.71407 28.5469L0.0854492 33.9195L3.71407 37.5011L7.34269 33.9195L3.71407 28.5469Z" fill="#F4E3F7"/>
<path d="M3.71407 35.0147V28.5469L0.0854492 33.9195L3.71407 37.5011V35.0147Z" fill="#730384"/>
<path d="M0.46806 10.6943C0.210375 10.6943 0 10.4867 0 10.2323C0 9.97795 0.210375 9.77032 0.46806 9.77032C0.725744 9.77032 0.936094 9.97795 0.936094 10.2323C0.936094 10.4867 0.725744 10.6943 0.46806 10.6943Z" fill="#730384"/>
<path d="M7.01003 13.9471C6.75234 13.9471 6.54199 13.7395 6.54199 13.4851C6.54199 13.2308 6.75234 13.0231 7.01003 13.0231C7.26771 13.0231 7.47806 13.2308 7.47806 13.4851C7.47806 13.7447 7.26771 13.9471 7.01003 13.9471Z" fill="#730384"/>
<path d="M13.6083 26.9709C13.3506 26.9709 13.1403 26.7633 13.1403 26.5089C13.1403 26.2546 13.3506 26.0469 13.6083 26.0469C13.866 26.0469 14.0763 26.2546 14.0763 26.5089C14.0711 26.7685 13.8607 26.9709 13.6083 26.9709Z" fill="#730384"/>
<path d="M3.71254 20.4646C3.45486 20.4646 3.24451 20.257 3.24451 20.0026C3.24451 19.7483 3.45486 19.5406 3.71254 19.5406C3.97023 19.5406 4.18058 19.7483 4.18058 20.0026C4.17532 20.257 3.97023 20.4646 3.71254 20.4646Z" fill="#730384"/>
<path d="M16.9065 9.06998C16.6488 9.06998 16.4385 8.86233 16.4385 8.60798C16.4385 8.35362 16.6488 8.146 16.9065 8.146C17.1642 8.146 17.3693 8.34845 17.3746 8.60281C17.3746 8.85716 17.1642 9.06479 16.9065 9.06998Z" fill="#730384"/>
<path d="M33.3996 26.9709C33.1419 26.9709 32.9315 26.7633 32.9315 26.5089C32.9315 26.2546 33.1419 26.0469 33.3996 26.0469C33.6572 26.0469 33.8676 26.2546 33.8676 26.5089C33.8676 26.7685 33.6572 26.9709 33.3996 26.9709Z" fill="#730384"/>
<path d="M26.8023 30.2325C26.5446 30.2325 26.3342 30.0249 26.3342 29.7705C26.3342 29.5162 26.5446 29.3085 26.8023 29.3085C27.0599 29.3085 27.2703 29.5162 27.2703 29.7705C27.265 30.0249 27.0599 30.2325 26.8023 30.2325Z" fill="#730384"/>
<path d="M36.7044 20.4646C36.4467 20.4646 36.2363 20.257 36.2363 20.0026C36.2363 19.7483 36.4467 19.5406 36.7044 19.5406C36.9621 19.5406 37.1724 19.7483 37.1724 20.0026C37.1672 20.257 36.9568 20.4646 36.7044 20.4646Z" fill="#730384"/>
<path d="M36.7044 13.9471C36.4467 13.9471 36.2363 13.7395 36.2363 13.4851C36.2363 13.2308 36.4467 13.0231 36.7044 13.0231C36.9621 13.0231 37.1724 13.2308 37.1724 13.4851C37.1672 13.7447 36.9568 13.9471 36.7044 13.9471Z" fill="#730384"/>
<path d="M30.1029 0.923959C29.8453 0.923959 29.6349 0.716331 29.6349 0.46198C29.6349 0.207628 29.8453 0 30.1029 0C30.3606 0 30.571 0.207628 30.571 0.46198C30.5657 0.721521 30.3606 0.923959 30.1029 0.923959Z" fill="#730384"/>
<path d="M20.2064 0.923959C19.9488 0.923959 19.7384 0.716331 19.7384 0.46198C19.7384 0.207628 19.9488 0 20.2064 0C20.4641 0 20.6745 0.207628 20.6745 0.46198C20.6745 0.721521 20.4641 0.923959 20.2064 0.923959Z" fill="#730384"/>
<path d="M10.3075 36.742C10.0498 36.742 9.83948 36.5343 9.83948 36.28C9.83948 36.0256 10.0498 35.818 10.3075 35.818C10.5652 35.818 10.7756 36.0256 10.7756 36.28C10.7756 36.5395 10.5652 36.742 10.3075 36.742Z" fill="#730384"/>
<path d="M16.9065 40.0028C16.6488 40.0028 16.4385 39.7952 16.4385 39.5408C16.4385 39.2865 16.6488 39.0788 16.9065 39.0788C17.1642 39.0788 17.3746 39.2865 17.3746 39.5408C17.3693 39.7952 17.1642 39.9976 16.9065 40.0028Z" fill="#730384"/>
<path d="M23.5038 36.742C23.2461 36.742 23.0358 36.5343 23.0358 36.28C23.0358 36.0256 23.2461 35.818 23.5038 35.818C23.7615 35.818 23.9719 36.0256 23.9719 36.28C23.9719 36.5395 23.7615 36.742 23.5038 36.742Z" fill="#730384"/>
<path d="M16.9065 20.4777C16.6488 20.4777 16.4385 20.27 16.4385 20.0157C16.4385 19.7613 16.6488 19.5537 16.9065 19.5537C17.1642 19.5537 17.3746 19.7613 17.3746 20.0157C17.3693 20.27 17.1642 20.4777 16.9065 20.4777Z" fill="#730384"/>
<path d="M23.5038 15.577C23.2461 15.577 23.0358 15.3694 23.0358 15.115C23.0358 14.8607 23.2461 14.653 23.5038 14.653C23.7615 14.653 23.9719 14.8607 23.9719 15.115C23.9719 15.3694 23.7615 15.577 23.5038 15.577Z" fill="#730384"/>
<path d="M23.5019 28.4701L20.2045 30.3492L16.9072 28.4701V24.7067L20.2045 22.8276L23.5019 24.7067V28.4701Z" fill="#F4E3F7"/>
<path d="M20.2045 30.3496V26.5862L16.9072 24.7072V28.4705L20.2045 30.3496Z" fill="#730384"/>
</svg>