<svg width="47" height="40" viewBox="0 0 47 40" fill="none" xmlns="http://www.w3.org/2000/svg">
  <path d="M42.6503 33.7579C42.5868 33.7579 42.5234 33.7406 42.4705 33.7002L3.21496 5.11756C3.06691 5.00783 3.0246 4.78836 3.12507 4.62087C3.22554 4.45916 3.42647 4.41297 3.57981 4.5227L42.8353 33.1053C42.9834 33.215 43.0257 33.4345 42.9252 33.602C42.8618 33.7002 42.756 33.7579 42.6503 33.7579Z" fill="#730384"/>
  <path d="M3.5055 33.7578C3.39974 33.7578 3.29399 33.7001 3.23054 33.5961C3.13007 33.4344 3.17237 33.2092 3.32043 33.0994L42.5759 4.51684C42.724 4.4071 42.9302 4.45332 43.0307 4.61503C43.1311 4.77674 43.0888 5.00196 42.9408 5.11169L3.68528 33.6943C3.6324 33.7405 3.56895 33.7578 3.5055 33.7578Z" fill="#730384"/>
  <path d="M45.9232 19.4699H0.327834C0.148054 19.4699 0 19.3082 0 19.1119C0 18.9155 0.148054 18.7538 0.327834 18.7538H45.9232C46.103 18.7538 46.2511 18.9155 46.2511 19.1119C46.2511 19.3082 46.103 19.4699 45.9232 19.4699Z" fill="#730384"/>
  <path d="M35.5765 0H9.20703V38.4009H35.5765V0Z" fill="#730384"/>
  <path d="M32.6476 31.9785H25.3242V33.5783H32.6476V31.9785Z" fill="#2970FF"/>
  <path d="M19.456 31.9785H12.1484V33.5783H19.456V31.9785Z" fill="#2970FF"/>
  <path d="M32.6381 24.002H12.1484V25.6018H32.6381V24.002Z" fill="#2970FF"/>
  <path d="M32.6381 20.8027H12.1484V22.4025H32.6381V20.8027Z" fill="#2970FF"/>
  <path d="M32.6381 17.6016H12.1484V19.2013H32.6381V17.6016Z" fill="#2970FF"/>
  <path d="M32.6381 14.4023H12.1484V16.0021H32.6381V14.4023Z" fill="#2970FF"/>
  <path d="M32.6381 11.2051H12.1484V12.8049H32.6381V11.2051Z" fill="#2970FF"/>
  <path d="M25.3147 4.80469H12.1484V6.40449H25.3147V4.80469Z" fill="#2970FF"/>
  <path d="M37.0375 1.59766H10.668V39.9985H37.0375V1.59766Z" fill="#F4E3F7"/>
  <path d="M34.1086 33.5781H26.7852V35.1779H34.1086V33.5781Z" fill="#730384"/>
  <path d="M20.9208 33.5781H13.6133V35.1779H20.9208V33.5781Z" fill="#730384"/>
  <path d="M34.1029 25.6016H13.6133V27.2013H34.1029V25.6016Z" fill="#730384"/>
  <path d="M34.1029 22.4023H13.6133V24.0021H34.1029V22.4023Z" fill="#730384"/>
  <path d="M34.1029 19.2031H13.6133V20.8029H34.1029V19.2031Z" fill="#730384"/>
  <path d="M34.1029 16.002H13.6133V17.6018H34.1029V16.002Z" fill="#730384"/>
  <path d="M34.1029 12.8027H13.6133V14.4025H34.1029V12.8027Z" fill="#730384"/>
  <path d="M26.7795 6.4043H13.6133V8.00407H26.7795V6.4043Z" fill="#730384"/>
</svg>