<svg width="40" height="40" viewBox="0 0 40 40" fill="none" xmlns="http://www.w3.org/2000/svg">
<path d="M37.4999 20.2503H2.65444C2.51793 20.2503 2.40625 20.1386 2.40625 20.0021C2.40625 19.8656 2.51793 19.7539 2.65444 19.7539H37.4999C37.6364 19.7539 37.7481 19.8656 37.7481 20.0021C37.7481 20.1386 37.6364 20.2503 37.4999 20.2503Z" fill="#730384"/>
<path d="M37.4999 20.2503H2.65444C2.51793 20.2503 2.40625 20.1386 2.40625 20.0021C2.40625 19.8656 2.51793 19.7539 2.65444 19.7539H37.4999C37.6364 19.7539 37.7481 19.8656 37.7481 20.0021C37.7481 20.1386 37.6364 20.2503 37.4999 20.2503Z" fill="#730384"/>
<path d="M4.75045 17.752H0.25V22.2529H4.75045V17.752Z" fill="#730384"/>
<path d="M4.50459 18.0006V22.001H0.504655V18.0006H4.50459ZM5.00096 17.5H0V22.5015H5.00096V17.5Z" fill="#730384"/>
<path d="M39.7504 17.752H35.25V22.2529H39.7504V17.752Z" fill="#730384"/>
<path d="M39.5004 18.0006V22.001H35.5005V18.0006H39.5004ZM40.001 17.5H35V22.5015H40.001V17.5Z" fill="#730384"/>
<path d="M19.9982 37.5978C19.8617 37.5978 19.75 37.4861 19.75 37.3496V2.50017C19.75 2.36365 19.8617 2.25195 19.9982 2.25195C20.1347 2.25195 20.2464 2.36365 20.2464 2.50017V37.3496C20.2505 37.4861 20.1388 37.5978 19.9982 37.5978Z" fill="#730384"/>
<path d="M19.9982 37.5978C19.8617 37.5978 19.75 37.4861 19.75 37.3496V2.50017C19.75 2.36365 19.8617 2.25195 19.9982 2.25195C20.1347 2.25195 20.2464 2.36365 20.2464 2.50017V37.3496C20.2505 37.4861 20.1388 37.5978 19.9982 37.5978Z" fill="#730384"/>
<path d="M22.2504 35.25H17.75V39.751H22.2504V35.25Z" fill="#730384"/>
<path d="M22.0004 35.4986V39.499H18.0005V35.4986H22.0004ZM22.501 34.998H17.5V39.9996H22.501V34.998Z" fill="#730384"/>
<path d="M22.2504 0.248047H17.75V4.74902H22.2504V0.248047Z" fill="#730384"/>
<path d="M22.0006 0.500571V4.50098H18.0006V0.500571H22.0006ZM22.5011 0H17.5001V5.00153H22.5011V0Z" fill="#730384"/>
<path d="M7.73669 32.515C7.67464 32.515 7.60847 32.4902 7.55883 32.4406C7.45956 32.3413 7.45956 32.1841 7.55883 32.0889L32.1955 7.44946C32.2948 7.35018 32.452 7.35018 32.5471 7.44946C32.6464 7.54875 32.6464 7.70595 32.5471 7.8011L7.91043 32.4406C7.86493 32.4902 7.80287 32.515 7.73669 32.515Z" fill="#730384"/>
<path d="M7.73669 32.515C7.67464 32.515 7.60847 32.4902 7.55883 32.4406C7.45956 32.3413 7.45956 32.1841 7.55883 32.0889L32.1955 7.44946C32.2948 7.35018 32.452 7.35018 32.5471 7.44946C32.6464 7.54875 32.6464 7.70595 32.5471 7.8011L7.91043 32.4406C7.86493 32.4902 7.80287 32.515 7.73669 32.515Z" fill="#730384"/>
<path d="M9.75435 30.25H5.25391V34.751H9.75435V30.25Z" fill="#730384"/>
<path d="M9.50047 30.5006V34.501H5.50051V30.5006H9.50047ZM10.001 30H5V35.0015H10.001V30Z" fill="#730384"/>
<path d="M34.7505 5.25H30.25V9.75098H34.7505V5.25Z" fill="#730384"/>
<path d="M34.4965 5.49643V9.49684H30.4966V5.49643H34.4965ZM34.9971 5H29.9961V10.0015H34.9971V5Z" fill="#730384"/>
<path d="M32.2681 32.515C32.2061 32.515 32.1399 32.4902 32.0903 32.4406L7.44946 7.8011C7.35018 7.70182 7.35018 7.54461 7.44946 7.44946C7.54873 7.35018 7.70592 7.35018 7.80105 7.44946L32.4377 32.0889C32.537 32.1882 32.537 32.3454 32.4377 32.4406C32.3922 32.4902 32.3302 32.515 32.2681 32.515Z" fill="#730384"/>
<path d="M32.2681 32.515C32.2061 32.515 32.1399 32.4902 32.0903 32.4406L7.44946 7.8011C7.35018 7.70182 7.35018 7.54461 7.44946 7.44946C7.54873 7.35018 7.70592 7.35018 7.80105 7.44946L32.4377 32.0889C32.537 32.1882 32.537 32.3454 32.4377 32.4406C32.3922 32.4902 32.3302 32.515 32.2681 32.515Z" fill="#730384"/>
<path d="M34.7505 30.25H30.25V34.751H34.7505V30.25Z" fill="#730384"/>
<path d="M34.4965 30.5006V34.501H30.4966V30.5006H34.4965ZM34.9971 30H29.9961V35.0015H34.9971V30Z" fill="#730384"/>
<path d="M9.75435 5.25H5.25391V9.75098H9.75435V5.25Z" fill="#730384"/>
<path d="M9.50047 5.49643V9.49684H5.50051V5.49643H9.50047ZM10.001 5H5V10.0015H10.001V5Z" fill="#730384"/>
<path d="M19.9978 29.9978C25.5194 29.9978 29.9956 25.5212 29.9956 19.9989C29.9956 14.4767 25.5194 10 19.9978 10C14.4762 10 10 14.4767 10 19.9989C10 25.5212 14.4762 29.9978 19.9978 29.9978Z" fill="#730384"/>
<path d="M19.9978 29.9978C25.5194 29.9978 29.9956 25.5212 29.9956 19.9989C29.9956 14.4767 25.5194 10 19.9978 10C14.4762 10 10 14.4767 10 19.9989C10 25.5212 14.4762 29.9978 19.9978 29.9978Z" fill="#F4E3F7"/>
<path d="M18.4308 23.4824L22.0022 21.5648L18.2697 20.2112L18.2697 17.081L15.7187 16.1786L15.7187 22.5518L18.4308 23.4824Z" fill="#730384"/>
<path d="M21.9747 18.3637L18.2422 17.0987L21.7867 15.1591L24.4182 16.0586L24.4182 22.3555L21.9747 21.5121L21.9747 18.3637Z" fill="#730384" fill-opacity="0.5"/>
<path d="M17.5996 21.4761L21.332 22.7411L17.7875 24.6808L15.156 23.7812L15.156 17.4844L17.5996 18.3277L17.5996 21.4761Z" fill="#730384" fill-opacity="0.3"/>
</svg>