<svg width="43" height="43" viewBox="0 0 43 43" fill="none" xmlns="http://www.w3.org/2000/svg">
<path d="M29.0024 0.55072H13.0024C6.09888 0.55072 0.502441 6.14716 0.502441 13.0507V29.0507C0.502441 35.9543 6.09888 41.5507 13.0024 41.5507H29.0024C35.906 41.5507 41.5024 35.9543 41.5024 29.0507V13.0507C41.5024 6.14716 35.906 0.55072 29.0024 0.55072Z" fill="url(#paint0_linear_310_4299)" fill-opacity="0.3" stroke="#730384"/>
<mask id="path-2-outside-1_310_4299" maskUnits="userSpaceOnUse" x="3.33447" y="3.3847" width="36" height="36" fill="black">
<rect fill="white" x="3.33447" y="3.3847" width="36" height="36"/>
<path d="M29.5678 4.3847H12.4344C7.96778 4.3847 4.33447 8.01804 4.33447 12.4847V29.618C4.33447 34.0847 7.96778 37.718 12.4344 37.718H29.5678C34.0345 37.718 37.6678 34.0847 37.6678 29.618V12.4847C37.6678 8.01804 34.0345 4.3847 29.5678 4.3847ZM30.4845 27.668C30.4845 27.7514 30.4511 27.8347 30.4345 27.918C30.4267 27.9491 30.4189 27.9838 30.4078 28.0187C30.3816 28.1009 30.3355 28.1719 30.2923 28.2466C30.2583 28.3055 30.2103 28.3589 30.1622 28.407C30.1263 28.4428 30.0918 28.4773 30.0511 28.518C30.0119 28.5573 29.9778 28.6005 29.9269 28.6225C29.8947 28.6363 29.862 28.6496 29.8345 28.668C29.7845 28.7014 29.7511 28.718 29.7011 28.7347C29.5511 28.8014 29.4012 28.8347 29.2512 28.8347H26.0178C25.8678 28.8347 25.7178 28.8014 25.5678 28.7347C25.5178 28.718 25.4845 28.7014 25.4345 28.668C25.3922 28.6398 25.3379 28.6236 25.292 28.599C25.2755 28.5902 25.264 28.5812 25.2526 28.5664C25.2258 28.5315 25.1878 28.4993 25.1592 28.4658C25.1331 28.4352 25.1057 28.4065 25.075 28.3754C25.0481 28.3482 25.0225 28.3197 25.0017 28.2876C24.9935 28.2749 24.9857 28.2621 24.9783 28.2494C24.9349 28.1748 24.8874 28.1009 24.8611 28.0187C24.85 27.9838 24.8422 27.9491 24.8345 27.918C24.8178 27.8347 24.7845 27.7514 24.7845 27.668C24.7845 27.6347 24.7678 27.618 24.7678 27.5847C24.7678 27.4825 24.7955 27.3812 24.8198 27.2819C24.8206 27.2788 24.8213 27.2757 24.8221 27.2727C24.8376 27.213 24.8544 27.1532 24.8774 27.0959C24.8956 27.0507 24.9201 27.0094 24.9511 26.968C25.0065 26.8849 25.0476 26.7944 25.107 26.7141L25.8132 25.7592C26.0611 25.424 26.1381 25.0006 26.1678 24.5847V17.3847C26.1178 16.9514 26.2345 16.5014 26.5178 16.0347C26.6046 15.9278 26.5286 15.768 26.3909 15.768H25.6702C25.4667 15.768 25.283 15.8898 25.2037 16.0772L22.172 23.2415C22.1692 23.248 22.1653 23.2539 22.1603 23.2589C22.1543 23.2649 22.1499 23.2723 22.1464 23.28C22.1334 23.3085 22.1104 23.3319 22.0918 23.3575C22.0722 23.3845 22.0592 23.4158 22.0425 23.4446C22.0001 23.5178 21.9538 23.5987 21.8845 23.668C21.8011 23.7514 21.6845 23.818 21.5678 23.8847C21.5345 23.9014 21.5178 23.918 21.4845 23.9347C21.3012 24.0014 21.1011 24.0347 20.9011 24.018C20.7678 24.0014 20.6511 23.9847 20.5178 23.9347C20.4181 23.9015 20.3382 23.8253 20.2514 23.7661C20.2055 23.7348 20.1595 23.7014 20.1178 23.668C20.0345 23.5847 19.9844 23.4847 19.9344 23.3847C19.9186 23.3529 19.8724 23.3212 19.8537 23.275C19.8519 23.2704 19.8511 23.2655 19.8511 23.2607C19.8511 23.2545 19.8499 23.2485 19.8475 23.2428L16.8001 16.0791C16.7199 15.8905 16.5347 15.768 16.3297 15.768H15.4745C15.3972 15.768 15.3537 15.857 15.4012 15.918C15.7512 16.4847 15.8845 16.9514 15.8345 17.368V24.5847C15.8664 25.0004 15.9411 25.424 16.1891 25.7592L16.9041 26.7261C16.9576 26.7984 17.0109 26.8709 17.0511 26.9514C17.0772 26.9947 17.0987 27.0336 17.118 27.0726C17.1543 27.1458 17.1759 27.225 17.1919 27.305C17.2091 27.3913 17.2273 27.4782 17.2337 27.5659C17.2342 27.5722 17.2345 27.5784 17.2345 27.5847C17.2345 27.618 17.2178 27.6347 17.2178 27.668C17.2178 27.7514 17.2012 27.8347 17.1678 27.918C17.1312 28.0647 17.0644 28.2016 16.9757 28.324C16.9731 28.3276 16.9705 28.3311 16.9678 28.3347C16.9313 28.3834 16.8859 28.4232 16.8446 28.4671C16.8144 28.4992 16.7765 28.5315 16.7497 28.5664C16.7383 28.5812 16.7268 28.5902 16.7103 28.599C16.6643 28.6236 16.6101 28.6398 16.5678 28.668C16.5178 28.7014 16.4845 28.718 16.4345 28.7347C16.2845 28.8014 16.1345 28.8347 15.9845 28.8347H12.7511C12.6563 28.8347 12.5615 28.8214 12.4709 28.7948C12.3657 28.7638 12.2591 28.7289 12.1678 28.668C12.1402 28.6496 12.1076 28.6363 12.0754 28.6225C12.0245 28.6005 11.9904 28.5573 11.9512 28.518C11.8845 28.4514 11.8345 28.4014 11.7845 28.3347C11.7345 28.268 11.6845 28.2014 11.6512 28.1347C11.6178 28.068 11.5845 27.9847 11.5678 27.918C11.5511 27.8347 11.5178 27.7514 11.5178 27.668C11.5178 27.6347 11.5011 27.618 11.5011 27.5847C11.5011 27.4825 11.5289 27.3812 11.5532 27.2819C11.5539 27.2788 11.5547 27.2757 11.5555 27.2727C11.571 27.213 11.5882 27.153 11.6146 27.0973C11.6362 27.0515 11.6636 27.0098 11.6845 26.968C11.7399 26.8849 11.781 26.7944 11.8406 26.7143L12.0395 26.4462C12.8804 25.3131 13.3345 23.9395 13.3345 22.5285V19.5055C13.3345 18.0998 12.8586 16.7355 11.9845 15.6347C11.8011 15.418 11.7012 15.1347 11.7012 14.8514V14.518C11.7012 13.8347 12.2678 13.268 12.9512 13.268H17.5011C18.0011 13.268 18.4511 13.568 18.6511 14.0347C19.5301 16.1106 22.4722 16.1106 23.3511 14.0347C23.5511 13.568 24.0011 13.268 24.5011 13.268H29.0511C29.7344 13.268 30.3011 13.8347 30.3011 14.518V14.8514C30.3011 15.1347 30.2011 15.418 30.0178 15.6347C29.1436 16.7355 28.6678 18.0998 28.6678 19.5055V22.5285C28.6678 23.9395 29.1218 25.3131 29.9628 26.4462L30.2298 26.806C30.244 26.8251 30.2609 26.8428 30.2718 26.864C30.3017 26.9225 30.3304 26.9829 30.3605 27.0414C30.3723 27.0643 30.3838 27.0868 30.3937 27.11C30.4144 27.1581 30.429 27.2088 30.4431 27.2591C30.4453 27.2667 30.4473 27.2743 30.4491 27.2819C30.4734 27.3812 30.5012 27.4825 30.5012 27.5847C30.5012 27.618 30.4845 27.6347 30.4845 27.668Z"/>
</mask>
<path d="M29.5678 4.3847H12.4344C7.96778 4.3847 4.33447 8.01804 4.33447 12.4847V29.618C4.33447 34.0847 7.96778 37.718 12.4344 37.718H29.5678C34.0345 37.718 37.6678 34.0847 37.6678 29.618V12.4847C37.6678 8.01804 34.0345 4.3847 29.5678 4.3847ZM30.4845 27.668C30.4845 27.7514 30.4511 27.8347 30.4345 27.918C30.4267 27.9491 30.4189 27.9838 30.4078 28.0187C30.3816 28.1009 30.3355 28.1719 30.2923 28.2466C30.2583 28.3055 30.2103 28.3589 30.1622 28.407C30.1263 28.4428 30.0918 28.4773 30.0511 28.518C30.0119 28.5573 29.9778 28.6005 29.9269 28.6225C29.8947 28.6363 29.862 28.6496 29.8345 28.668C29.7845 28.7014 29.7511 28.718 29.7011 28.7347C29.5511 28.8014 29.4012 28.8347 29.2512 28.8347H26.0178C25.8678 28.8347 25.7178 28.8014 25.5678 28.7347C25.5178 28.718 25.4845 28.7014 25.4345 28.668C25.3922 28.6398 25.3379 28.6236 25.292 28.599C25.2755 28.5902 25.264 28.5812 25.2526 28.5664C25.2258 28.5315 25.1878 28.4993 25.1592 28.4658C25.1331 28.4352 25.1057 28.4065 25.075 28.3754C25.0481 28.3482 25.0225 28.3197 25.0017 28.2876C24.9935 28.2749 24.9857 28.2621 24.9783 28.2494C24.9349 28.1748 24.8874 28.1009 24.8611 28.0187C24.85 27.9838 24.8422 27.9491 24.8345 27.918C24.8178 27.8347 24.7845 27.7514 24.7845 27.668C24.7845 27.6347 24.7678 27.618 24.7678 27.5847C24.7678 27.4825 24.7955 27.3812 24.8198 27.2819C24.8206 27.2788 24.8213 27.2757 24.8221 27.2727C24.8376 27.213 24.8544 27.1532 24.8774 27.0959C24.8956 27.0507 24.9201 27.0094 24.9511 26.968C25.0065 26.8849 25.0476 26.7944 25.107 26.7141L25.8132 25.7592C26.0611 25.424 26.1381 25.0006 26.1678 24.5847V17.3847C26.1178 16.9514 26.2345 16.5014 26.5178 16.0347C26.6046 15.9278 26.5286 15.768 26.3909 15.768H25.6702C25.4667 15.768 25.283 15.8898 25.2037 16.0772L22.172 23.2415C22.1692 23.248 22.1653 23.2539 22.1603 23.2589C22.1543 23.2649 22.1499 23.2723 22.1464 23.28C22.1334 23.3085 22.1104 23.3319 22.0918 23.3575C22.0722 23.3845 22.0592 23.4158 22.0425 23.4446C22.0001 23.5178 21.9538 23.5987 21.8845 23.668C21.8011 23.7514 21.6845 23.818 21.5678 23.8847C21.5345 23.9014 21.5178 23.918 21.4845 23.9347C21.3012 24.0014 21.1011 24.0347 20.9011 24.018C20.7678 24.0014 20.6511 23.9847 20.5178 23.9347C20.4181 23.9015 20.3382 23.8253 20.2514 23.7661C20.2055 23.7348 20.1595 23.7014 20.1178 23.668C20.0345 23.5847 19.9844 23.4847 19.9344 23.3847C19.9186 23.3529 19.8724 23.3212 19.8537 23.275C19.8519 23.2704 19.8511 23.2655 19.8511 23.2607C19.8511 23.2545 19.8499 23.2485 19.8475 23.2428L16.8001 16.0791C16.7199 15.8905 16.5347 15.768 16.3297 15.768H15.4745C15.3972 15.768 15.3537 15.857 15.4012 15.918C15.7512 16.4847 15.8845 16.9514 15.8345 17.368V24.5847C15.8664 25.0004 15.9411 25.424 16.1891 25.7592L16.9041 26.7261C16.9576 26.7984 17.0109 26.8709 17.0511 26.9514C17.0772 26.9947 17.0987 27.0336 17.118 27.0726C17.1543 27.1458 17.1759 27.225 17.1919 27.305C17.2091 27.3913 17.2273 27.4782 17.2337 27.5659C17.2342 27.5722 17.2345 27.5784 17.2345 27.5847C17.2345 27.618 17.2178 27.6347 17.2178 27.668C17.2178 27.7514 17.2012 27.8347 17.1678 27.918C17.1312 28.0647 17.0644 28.2016 16.9757 28.324C16.9731 28.3276 16.9705 28.3311 16.9678 28.3347C16.9313 28.3834 16.8859 28.4232 16.8446 28.4671C16.8144 28.4992 16.7765 28.5315 16.7497 28.5664C16.7383 28.5812 16.7268 28.5902 16.7103 28.599C16.6643 28.6236 16.6101 28.6398 16.5678 28.668C16.5178 28.7014 16.4845 28.718 16.4345 28.7347C16.2845 28.8014 16.1345 28.8347 15.9845 28.8347H12.7511C12.6563 28.8347 12.5615 28.8214 12.4709 28.7948C12.3657 28.7638 12.2591 28.7289 12.1678 28.668C12.1402 28.6496 12.1076 28.6363 12.0754 28.6225C12.0245 28.6005 11.9904 28.5573 11.9512 28.518C11.8845 28.4514 11.8345 28.4014 11.7845 28.3347C11.7345 28.268 11.6845 28.2014 11.6512 28.1347C11.6178 28.068 11.5845 27.9847 11.5678 27.918C11.5511 27.8347 11.5178 27.7514 11.5178 27.668C11.5178 27.6347 11.5011 27.618 11.5011 27.5847C11.5011 27.4825 11.5289 27.3812 11.5532 27.2819C11.5539 27.2788 11.5547 27.2757 11.5555 27.2727C11.571 27.213 11.5882 27.153 11.6146 27.0973C11.6362 27.0515 11.6636 27.0098 11.6845 26.968C11.7399 26.8849 11.781 26.7944 11.8406 26.7143L12.0395 26.4462C12.8804 25.3131 13.3345 23.9395 13.3345 22.5285V19.5055C13.3345 18.0998 12.8586 16.7355 11.9845 15.6347C11.8011 15.418 11.7012 15.1347 11.7012 14.8514V14.518C11.7012 13.8347 12.2678 13.268 12.9512 13.268H17.5011C18.0011 13.268 18.4511 13.568 18.6511 14.0347C19.5301 16.1106 22.4722 16.1106 23.3511 14.0347C23.5511 13.568 24.0011 13.268 24.5011 13.268H29.0511C29.7344 13.268 30.3011 13.8347 30.3011 14.518V14.8514C30.3011 15.1347 30.2011 15.418 30.0178 15.6347C29.1436 16.7355 28.6678 18.0998 28.6678 19.5055V22.5285C28.6678 23.9395 29.1218 25.3131 29.9628 26.4462L30.2298 26.806C30.244 26.8251 30.2609 26.8428 30.2718 26.864C30.3017 26.9225 30.3304 26.9829 30.3605 27.0414C30.3723 27.0643 30.3838 27.0868 30.3937 27.11C30.4144 27.1581 30.429 27.2088 30.4431 27.2591C30.4453 27.2667 30.4473 27.2743 30.4491 27.2819C30.4734 27.3812 30.5012 27.4825 30.5012 27.5847C30.5012 27.618 30.4845 27.6347 30.4845 27.668Z" fill="url(#paint1_linear_310_4299)" fill-opacity="0.3"/>
<path d="M29.5678 4.3847H12.4344C7.96778 4.3847 4.33447 8.01804 4.33447 12.4847V29.618C4.33447 34.0847 7.96778 37.718 12.4344 37.718H29.5678C34.0345 37.718 37.6678 34.0847 37.6678 29.618V12.4847C37.6678 8.01804 34.0345 4.3847 29.5678 4.3847ZM30.4845 27.668C30.4845 27.7514 30.4511 27.8347 30.4345 27.918C30.4267 27.9491 30.4189 27.9838 30.4078 28.0187C30.3816 28.1009 30.3355 28.1719 30.2923 28.2466C30.2583 28.3055 30.2103 28.3589 30.1622 28.407C30.1263 28.4428 30.0918 28.4773 30.0511 28.518C30.0119 28.5573 29.9778 28.6005 29.9269 28.6225C29.8947 28.6363 29.862 28.6496 29.8345 28.668C29.7845 28.7014 29.7511 28.718 29.7011 28.7347C29.5511 28.8014 29.4012 28.8347 29.2512 28.8347H26.0178C25.8678 28.8347 25.7178 28.8014 25.5678 28.7347C25.5178 28.718 25.4845 28.7014 25.4345 28.668C25.3922 28.6398 25.3379 28.6236 25.292 28.599C25.2755 28.5902 25.264 28.5812 25.2526 28.5664C25.2258 28.5315 25.1878 28.4993 25.1592 28.4658C25.1331 28.4352 25.1057 28.4065 25.075 28.3754C25.0481 28.3482 25.0225 28.3197 25.0017 28.2876C24.9935 28.2749 24.9857 28.2621 24.9783 28.2494C24.9349 28.1748 24.8874 28.1009 24.8611 28.0187C24.85 27.9838 24.8422 27.9491 24.8345 27.918C24.8178 27.8347 24.7845 27.7514 24.7845 27.668C24.7845 27.6347 24.7678 27.618 24.7678 27.5847C24.7678 27.4825 24.7955 27.3812 24.8198 27.2819C24.8206 27.2788 24.8213 27.2757 24.8221 27.2727C24.8376 27.213 24.8544 27.1532 24.8774 27.0959C24.8956 27.0507 24.9201 27.0094 24.9511 26.968C25.0065 26.8849 25.0476 26.7944 25.107 26.7141L25.8132 25.7592C26.0611 25.424 26.1381 25.0006 26.1678 24.5847V17.3847C26.1178 16.9514 26.2345 16.5014 26.5178 16.0347C26.6046 15.9278 26.5286 15.768 26.3909 15.768H25.6702C25.4667 15.768 25.283 15.8898 25.2037 16.0772L22.172 23.2415C22.1692 23.248 22.1653 23.2539 22.1603 23.2589C22.1543 23.2649 22.1499 23.2723 22.1464 23.28C22.1334 23.3085 22.1104 23.3319 22.0918 23.3575C22.0722 23.3845 22.0592 23.4158 22.0425 23.4446C22.0001 23.5178 21.9538 23.5987 21.8845 23.668C21.8011 23.7514 21.6845 23.818 21.5678 23.8847C21.5345 23.9014 21.5178 23.918 21.4845 23.9347C21.3012 24.0014 21.1011 24.0347 20.9011 24.018C20.7678 24.0014 20.6511 23.9847 20.5178 23.9347C20.4181 23.9015 20.3382 23.8253 20.2514 23.7661C20.2055 23.7348 20.1595 23.7014 20.1178 23.668C20.0345 23.5847 19.9844 23.4847 19.9344 23.3847C19.9186 23.3529 19.8724 23.3212 19.8537 23.275C19.8519 23.2704 19.8511 23.2655 19.8511 23.2607C19.8511 23.2545 19.8499 23.2485 19.8475 23.2428L16.8001 16.0791C16.7199 15.8905 16.5347 15.768 16.3297 15.768H15.4745C15.3972 15.768 15.3537 15.857 15.4012 15.918C15.7512 16.4847 15.8845 16.9514 15.8345 17.368V24.5847C15.8664 25.0004 15.9411 25.424 16.1891 25.7592L16.9041 26.7261C16.9576 26.7984 17.0109 26.8709 17.0511 26.9514C17.0772 26.9947 17.0987 27.0336 17.118 27.0726C17.1543 27.1458 17.1759 27.225 17.1919 27.305C17.2091 27.3913 17.2273 27.4782 17.2337 27.5659C17.2342 27.5722 17.2345 27.5784 17.2345 27.5847C17.2345 27.618 17.2178 27.6347 17.2178 27.668C17.2178 27.7514 17.2012 27.8347 17.1678 27.918C17.1312 28.0647 17.0644 28.2016 16.9757 28.324C16.9731 28.3276 16.9705 28.3311 16.9678 28.3347C16.9313 28.3834 16.8859 28.4232 16.8446 28.4671C16.8144 28.4992 16.7765 28.5315 16.7497 28.5664C16.7383 28.5812 16.7268 28.5902 16.7103 28.599C16.6643 28.6236 16.6101 28.6398 16.5678 28.668C16.5178 28.7014 16.4845 28.718 16.4345 28.7347C16.2845 28.8014 16.1345 28.8347 15.9845 28.8347H12.7511C12.6563 28.8347 12.5615 28.8214 12.4709 28.7948C12.3657 28.7638 12.2591 28.7289 12.1678 28.668C12.1402 28.6496 12.1076 28.6363 12.0754 28.6225C12.0245 28.6005 11.9904 28.5573 11.9512 28.518C11.8845 28.4514 11.8345 28.4014 11.7845 28.3347C11.7345 28.268 11.6845 28.2014 11.6512 28.1347C11.6178 28.068 11.5845 27.9847 11.5678 27.918C11.5511 27.8347 11.5178 27.7514 11.5178 27.668C11.5178 27.6347 11.5011 27.618 11.5011 27.5847C11.5011 27.4825 11.5289 27.3812 11.5532 27.2819C11.5539 27.2788 11.5547 27.2757 11.5555 27.2727C11.571 27.213 11.5882 27.153 11.6146 27.0973C11.6362 27.0515 11.6636 27.0098 11.6845 26.968C11.7399 26.8849 11.781 26.7944 11.8406 26.7143L12.0395 26.4462C12.8804 25.3131 13.3345 23.9395 13.3345 22.5285V19.5055C13.3345 18.0998 12.8586 16.7355 11.9845 15.6347C11.8011 15.418 11.7012 15.1347 11.7012 14.8514V14.518C11.7012 13.8347 12.2678 13.268 12.9512 13.268H17.5011C18.0011 13.268 18.4511 13.568 18.6511 14.0347C19.5301 16.1106 22.4722 16.1106 23.3511 14.0347C23.5511 13.568 24.0011 13.268 24.5011 13.268H29.0511C29.7344 13.268 30.3011 13.8347 30.3011 14.518V14.8514C30.3011 15.1347 30.2011 15.418 30.0178 15.6347C29.1436 16.7355 28.6678 18.0998 28.6678 19.5055V22.5285C28.6678 23.9395 29.1218 25.3131 29.9628 26.4462L30.2298 26.806C30.244 26.8251 30.2609 26.8428 30.2718 26.864C30.3017 26.9225 30.3304 26.9829 30.3605 27.0414C30.3723 27.0643 30.3838 27.0868 30.3937 27.11C30.4144 27.1581 30.429 27.2088 30.4431 27.2591C30.4453 27.2667 30.4473 27.2743 30.4491 27.2819C30.4734 27.3812 30.5012 27.4825 30.5012 27.5847C30.5012 27.618 30.4845 27.6347 30.4845 27.668Z" stroke="#730384" stroke-width="2" mask="url(#path-2-outside-1_310_4299)"/>
<defs>
<linearGradient id="paint0_linear_310_4299" x1="-15.3317" y1="60.8894" x2="80.3649" y2="2.80447" gradientUnits="userSpaceOnUse">
<stop stop-color="#0C0038"/>
<stop offset="0.158925" stop-color="#6120DA"/>
<stop offset="0.484375" stop-color="#FF00D4"/>
<stop offset="0.71875" stop-color="#FF8E00"/>
<stop offset="1" stop-color="#FFF500"/>
</linearGradient>
<linearGradient id="paint1_linear_310_4299" x1="-9.27728" y1="54.2503" x2="70.4699" y2="5.84616" gradientUnits="userSpaceOnUse">
<stop stop-color="#0C0038"/>
<stop offset="0.158925" stop-color="#6120DA"/>
<stop offset="0.484375" stop-color="#FF00D4"/>
<stop offset="0.71875" stop-color="#FF8E00"/>
<stop offset="1" stop-color="#FFF500"/>
</linearGradient>
</defs>
</svg>
