<svg width="43" height="43" viewBox="0 0 43 43" fill="none" xmlns="http://www.w3.org/2000/svg">
<path d="M29.0024 0.55072H13.0024C6.09888 0.55072 0.502441 6.14716 0.502441 13.0507V29.0507C0.502441 35.9543 6.09888 41.5507 13.0024 41.5507H29.0024C35.906 41.5507 41.5024 35.9543 41.5024 29.0507V13.0507C41.5024 6.14716 35.906 0.55072 29.0024 0.55072Z" fill="url(#paint0_linear_310_4296)" fill-opacity="0.3" stroke="#730384"/>
<path d="M28.0666 15.1448L28.0638 15.1555L28.0616 15.1663L25.5786 27.1146C25.5785 27.115 25.5784 27.1154 25.5784 27.1158C25.4917 27.5244 25.3639 27.5658 25.3421 27.5722C25.2435 27.6008 25.1149 27.5874 24.902 27.4731C24.749 27.391 24.6155 27.2951 24.4601 27.1835C24.3775 27.1242 24.2887 27.0605 24.1876 26.9921C23.2571 26.3623 22.3186 25.741 21.3826 25.1214C20.9097 24.7923 20.274 24.8319 19.8307 25.1709L19.83 25.1714C19.2775 25.5956 18.4658 25.3669 18.213 24.7103C17.9829 24.1125 17.751 23.5168 17.5192 22.9253C17.3907 22.572 17.1245 22.2692 16.736 22.1305L16.7338 22.1297C15.8308 21.812 13.7968 21.0841 12.6481 20.5918L12.6481 20.5918L12.6434 20.5898C12.5706 20.5595 12.4961 20.5249 12.434 20.4873C12.504 20.4293 12.6233 20.3562 12.81 20.2862L12.81 20.2862L12.8139 20.2847L27.6763 14.5697C27.8902 14.4925 27.9964 14.5508 28.0299 14.5829C28.0621 14.6139 28.1657 14.755 28.0666 15.1448ZM12.3609 20.5661C12.3608 20.566 12.3611 20.5652 12.362 20.5635C12.3614 20.5652 12.3609 20.5661 12.3609 20.5661ZM21.0011 3.8847C11.525 3.8847 3.83447 11.5752 3.83447 21.0514C3.83447 30.5275 11.525 38.218 21.0011 38.218C30.4773 38.218 38.1678 30.5275 38.1678 21.0514C38.1678 11.5752 30.4773 3.8847 21.0011 3.8847Z" fill="url(#paint1_linear_310_4296)" fill-opacity="0.3" stroke="#730384"/>
<defs>
<linearGradient id="paint0_linear_310_4296" x1="-15.3317" y1="60.8894" x2="80.3649" y2="2.80447" gradientUnits="userSpaceOnUse">
<stop stop-color="#0C0038"/>
<stop offset="0.158925" stop-color="#6120DA"/>
<stop offset="0.484375" stop-color="#FF00D4"/>
<stop offset="0.71875" stop-color="#FF8E00"/>
<stop offset="1" stop-color="#FFF500"/>
</linearGradient>
<linearGradient id="paint1_linear_310_4296" x1="-9.27728" y1="54.2503" x2="70.4699" y2="5.84616" gradientUnits="userSpaceOnUse">
<stop stop-color="#0C0038"/>
<stop offset="0.158925" stop-color="#6120DA"/>
<stop offset="0.484375" stop-color="#FF00D4"/>
<stop offset="0.71875" stop-color="#FF8E00"/>
<stop offset="1" stop-color="#FFF500"/>
</linearGradient>
</defs>
</svg>
