<svg width="110" height="33" viewBox="0 0 110 33" fill="none" xmlns="http://www.w3.org/2000/svg">
  <path d="M55.1558 18.5579C55.1558 15.1203 51.318 14.2316 48.0079 13.2261C45.2255 12.3842 43.7383 11.7528 43.7383 10.0223C43.7383 8.19822 45.4414 7.63697 47.768 7.63697C50.3585 7.63697 52.4933 8.85301 52.4933 11.6592H54.4602C54.4602 8.96993 52.7572 6 47.768 6C43.5944 6 41.7715 7.54343 41.7715 10.069C41.7715 12.9922 44.1941 13.8808 47.5282 14.863C50.2146 15.6347 53.1889 16.1492 53.1889 18.6514C53.1889 20.6392 51.5339 21.3174 48.6555 21.3174C45.1056 21.3174 42.9708 20.4521 42.9708 16.5468H41.0039C41.0039 20.4053 42.7549 22.9543 48.6555 22.9543C53.6446 22.9543 55.1558 21.0134 55.1558 18.5579Z" fill="#01001E"/>
  <path d="M62.6119 21.3174C60.5491 21.3174 59.5897 20.382 59.5897 17.9499V11.098H57.6228V18.2071C57.6228 21.4343 59.3738 22.9543 62.0842 22.9543C64.6747 22.9543 66.1859 21.4811 66.6656 19.3764H67.2173L66.9055 20.7094V22.7205H68.8483V11.098H66.9055V16.2661C66.9055 19.3764 65.1305 21.3174 62.6119 21.3174Z" fill="#01001E"/>
  <path d="M72.0108 22.7205H73.9777V12.5245L80.286 12.735V11.098L73.6658 10.8875C72.5385 10.8408 72.0108 11.3786 72.0108 12.4777V22.7205Z" fill="#01001E"/>
  <path d="M94.837 11.098C93.7577 11.098 93.3019 11.2149 92.0546 11.9866C90.9273 11.2149 89.4401 10.8641 88.001 10.8641C84.5709 10.8641 81.8845 12.3608 81.8845 15.5646C81.8845 19.1659 85.2426 20.382 89.0803 19.4232V19.961C87.2334 20.5223 85.3385 21.0601 83.4196 21.5746L83.8274 22.9076C86.7777 22.0423 92.0307 20.8029 92.0307 23.3753C92.0307 25.1993 89.5841 25.363 82.748 25.363V27C90.7354 27 93.9975 26.6024 93.9975 23.5156C93.9975 20.9432 91.3111 20.569 88.5287 21.0134C92.1266 19.7272 94.1414 18.1604 94.1414 15.6581C94.1414 14.6526 93.8296 13.8107 93.3259 13.2027C93.7817 12.8753 94.2134 12.735 94.885 12.735H95.8924V11.098H94.837ZM88.025 18.745C85.5304 18.745 83.8514 17.8797 83.8514 15.6114C83.8514 13.3664 85.5304 12.5011 88.025 12.5011C90.5435 12.5011 92.1746 13.3664 92.1746 15.6114C92.1746 17.8797 90.5435 18.745 88.025 18.745Z" fill="#01001E"/>
  <path d="M97.2507 16.7572C97.2507 20.1013 99.0496 22.9543 103.319 22.9543C107.109 22.9543 108.548 20.4521 109.004 18.6514H107.037C106.605 20.4287 105.286 21.3641 103.319 21.3641C100.369 21.3641 99.2895 19.4699 99.1696 17.2717H108.596V16.5234C108.596 12.9454 106.389 10.8641 103.031 10.8641C99.6493 10.8641 97.2507 13.0156 97.2507 16.7572ZM99.1696 15.8218C99.1696 13.951 100.681 12.4777 103.031 12.4777C105.406 12.4777 106.677 13.951 106.677 15.8218H99.1696Z" fill="#01001E"/>
  <path d="M11.0692 27.9751L23.1392 21.5312L10.5246 16.9826L10.5246 6.46383L1.9032 3.43141L1.9032 24.8479L11.0692 27.9751Z" fill="url(#paint0_linear_310_3752)"/>
  <path d="M23.0475 10.769L10.433 6.51812L22.4122 0.000110056L31.3059 3.02295L31.3059 24.1829L23.0475 21.3489L23.0475 10.769Z" fill="url(#paint1_linear_310_3752)" fill-opacity="0.5"/>
  <path d="M8.25803 21.2322L20.8726 25.4831L8.89329 32.0011L-0.000405288 28.9783L-0.000404358 7.81836L8.25803 10.6523L8.25803 21.2322Z" fill="url(#paint2_linear_310_3752)" fill-opacity="0.3"/>
  <defs>
    <linearGradient id="paint0_linear_310_3752" x1="1.90272" y1="5.0379" x2="17.4125" y2="29.6719" gradientUnits="userSpaceOnUse">
      <stop stop-color="#0C0038"/>
      <stop offset="0.197917" stop-color="#6120DA"/>
      <stop offset="0.484375" stop-color="#FF00D4"/>
      <stop offset="0.71875" stop-color="#FF8E00"/>
      <stop offset="1" stop-color="#FFF500"/>
    </linearGradient>
    <linearGradient id="paint1_linear_310_3752" x1="35.0845" y1="24.0968" x2="14.7437" y2="-5.38837" gradientUnits="userSpaceOnUse">
      <stop stop-color="#0C0038"/>
      <stop offset="0.197917" stop-color="#6120DA"/>
      <stop offset="0.484375" stop-color="#FF00D4"/>
      <stop offset="0.71875" stop-color="#FF8E00"/>
      <stop offset="1" stop-color="#FFF500"/>
    </linearGradient>
    <linearGradient id="paint2_linear_310_3752" x1="-3.77899" y1="7.90441" x2="20.7854" y2="52.6684" gradientUnits="userSpaceOnUse">
      <stop stop-color="#0C0038"/>
      <stop offset="0.197917" stop-color="#6120DA"/>
      <stop offset="0.484375" stop-color="#FF00D4"/>
      <stop offset="0.71875" stop-color="#FF8E00"/>
      <stop offset="1" stop-color="#FFF500"/>
    </linearGradient>
  </defs>
</svg>
