<svg width="43" height="43" viewBox="0 0 43 43" fill="none" xmlns="http://www.w3.org/2000/svg">
<path d="M29.0024 0.55072H13.0024C6.09888 0.55072 0.502441 6.14716 0.502441 13.0507V29.0507C0.502441 35.9543 6.09888 41.5507 13.0024 41.5507H29.0024C35.906 41.5507 41.5024 35.9543 41.5024 29.0507V13.0507C41.5024 6.14716 35.906 0.55072 29.0024 0.55072Z" fill="url(#paint0_linear_310_4293)" fill-opacity="0.3" stroke="#730384"/>
<path d="M22.9536 26.6187C22.6869 27.052 22.7203 27.602 23.0203 28.002M22.9536 26.6187C23.2036 26.1854 23.6869 25.9354 24.2036 26.0187M22.9536 26.6187L22.5278 26.3566C22.5265 26.3586 22.5253 26.3607 22.5241 26.3627C22.5229 26.3647 22.5217 26.3668 22.5205 26.3688L22.9536 26.6187ZM23.0203 28.002L27.0203 14.2354M23.0203 28.002C23.5869 28.752 23.8536 29.8354 23.8369 31.3354L23.0203 28.002ZM24.2036 26.0187C26.1369 26.302 28.237 25.3354 29.3036 23.6854M24.2036 26.0187L24.2832 25.5251C24.2819 25.5249 24.2806 25.5247 24.2793 25.5244C24.2782 25.5243 24.2772 25.5241 24.2761 25.524L24.2036 26.0187ZM29.3036 23.6854C30.3536 22.0187 30.3369 19.7187 29.2536 18.0687M29.3036 23.6854L28.8837 23.4139C28.8832 23.4147 28.8827 23.4156 28.8821 23.4164C28.8816 23.4172 28.8811 23.418 28.8806 23.4188L29.3036 23.6854ZM29.2536 18.0687C28.9369 17.6187 28.6369 17.1687 28.5369 16.5854M29.2536 18.0687L28.8356 18.3431C28.8371 18.3453 28.8385 18.3475 28.8399 18.3497C28.8415 18.3519 28.8431 18.3542 28.8447 18.3564L29.2536 18.0687ZM28.5369 16.5854C28.4536 16.102 28.5369 15.652 28.6036 15.3354M28.5369 16.5854L28.0442 16.6703C28.0442 16.6702 28.0442 16.67 28.0441 16.6698L28.5369 16.5854ZM28.6036 15.3354C28.6091 15.3039 28.6143 15.2727 28.6191 15.2417C28.7618 14.3258 27.8078 13.7465 27.0203 14.2354M28.6036 15.3354L28.1143 15.2324C28.1137 15.2352 28.1131 15.2381 28.1125 15.241C28.112 15.2437 28.1116 15.2464 28.1111 15.2492L28.6036 15.3354ZM27.0203 14.2354L27.284 14.6602C27.2846 14.6598 27.2853 14.6593 27.286 14.6589L27.2887 14.6572L27.0203 14.2354ZM18.837 34.3591H18.8369L18.8203 35.5388L18.8203 35.552C18.8205 35.895 18.8211 36.8457 18.0688 37.5606C17.7226 37.9047 17.1849 38.2187 16.4203 38.2187C16.0772 38.2187 15.6886 38.158 15.2564 38.0077C9.00844 35.8448 4.29551 29.9836 3.54021 23.3924L18.837 34.3591ZM18.837 34.3591V34.352M18.837 34.3591V34.352M18.837 34.352V34.3503C18.837 33.4856 18.837 32.6154 18.8202 31.7443C18.8202 31.7437 18.8202 31.743 18.8202 31.7424L18.8039 30.3587L18.8665 29.764C18.938 29.2757 19.1491 28.7974 19.4733 28.4027L19.4734 28.4028M18.837 34.352L19.4734 28.4028M19.4734 28.4028L19.479 28.3957M19.4734 28.4028L19.479 28.3957M19.479 28.3957C19.9176 27.8417 19.9899 27.077 19.6442 26.4488C19.303 25.7975 18.6113 25.4882 17.9069 25.5542L17.8982 25.555M19.479 28.3957L17.8982 25.555M17.8982 25.555L17.8895 25.5562M17.8982 25.555L17.8895 25.5562M17.8895 25.5562C16.1571 25.7802 14.2304 24.8442 13.297 23.3248C12.3688 21.7969 12.4253 19.6944 13.4973 18.1543L13.5026 18.1468M17.8895 25.5562L13.5026 18.1468M13.5026 18.1468L13.5075 18.1391M13.5026 18.1468L13.5075 18.1391M13.5075 18.1391C13.5218 18.1169 13.5376 18.0929 13.5546 18.067C13.6983 17.8483 13.9282 17.4986 14.0393 17.0377C14.194 16.4163 14.0874 15.8684 14.0077 15.4587C14.0033 15.436 13.999 15.4137 13.9948 15.3918C13.967 15.2449 13.9477 15.0955 13.937 14.9441C13.9141 14.6191 14.2608 14.3684 14.6017 14.5672L14.6016 14.5673M13.5075 18.1391L14.6016 14.5673M14.6016 14.5673L14.6108 14.5724M14.6016 14.5673L14.6108 14.5724M14.6108 14.5724L14.9024 14.7344C15.3649 15.0152 16.0205 15.4118 16.8555 15.5454C17.6104 15.6736 18.3207 15.5354 18.8204 15.4382C18.8413 15.4341 18.8618 15.4301 18.882 15.4263L18.8952 15.4237M14.6108 14.5724L18.8952 15.4237M18.8952 15.4237L18.9082 15.4204M18.8952 15.4237L18.9082 15.4204M18.9082 15.4204L19.0941 15.374M18.9082 15.4204L19.0941 15.374M19.0941 15.374C20.3474 15.1378 21.6766 15.1233 22.9213 15.3588L19.0941 15.374ZM27.1098 14.771C27.1113 14.77 27.1128 14.769 27.1143 14.7681L26.8369 14.352L27.1054 14.7739L27.1098 14.771ZM30.3703 6.52909C24.7737 2.99279 17.2501 2.99345 11.638 6.51172L11.6365 6.51267C6.04168 10.0481 2.78491 16.8174 3.5402 23.3923L30.3703 6.52909ZM24.4536 37.8583C24.455 37.8592 24.4564 37.8601 24.4578 37.8609C24.4591 37.8617 24.4604 37.8625 24.4617 37.8633L24.7203 37.4354L24.4536 37.8583ZM23.2881 32.7182C23.2879 32.7208 23.2877 32.7235 23.2875 32.7261C23.2875 32.7288 23.2874 32.7315 23.2873 32.7342L23.7869 32.752L23.2881 32.7182Z" fill="url(#paint1_linear_310_4293)" fill-opacity="0.3" stroke="#730384"/>
<defs>
<linearGradient id="paint0_linear_310_4293" x1="-15.3317" y1="60.8894" x2="80.3649" y2="2.80447" gradientUnits="userSpaceOnUse">
<stop stop-color="#0C0038"/>
<stop offset="0.158925" stop-color="#6120DA"/>
<stop offset="0.484375" stop-color="#FF00D4"/>
<stop offset="0.71875" stop-color="#FF8E00"/>
<stop offset="1" stop-color="#FFF500"/>
</linearGradient>
<linearGradient id="paint1_linear_310_4293" x1="-10.0102" y1="54.2561" x2="70.6208" y2="4.14244" gradientUnits="userSpaceOnUse">
<stop stop-color="#0C0038"/>
<stop offset="0.158925" stop-color="#6120DA"/>
<stop offset="0.484375" stop-color="#FF00D4"/>
<stop offset="0.71875" stop-color="#FF8E00"/>
<stop offset="1" stop-color="#FFF500"/>
</linearGradient>
</defs>
</svg>
